<svg xmlns="http://www.w3.org/2000/svg" xmlns:xlink="http://www.w3.org/1999/xlink" width="500" zoomAndPan="magnify" viewBox="0 0 375 374.999991" height="500" preserveAspectRatio="xMidYMid meet" version="1.0"><defs><clipPath id="a9168a23d9"><path d="M 27 19.429688 L 229 19.429688 L 229 355.429688 L 27 355.429688 Z M 27 19.429688 " clip-rule="nonzero"/></clipPath><clipPath id="efa00395e6"><path d="M 146 19.429688 L 348 19.429688 L 348 355.429688 L 146 355.429688 Z M 146 19.429688 " clip-rule="nonzero"/></clipPath><clipPath id="a32bc33879"><path d="M 148.773438 145.808594 L 153.316406 145.808594 L 153.316406 151.09375 L 148.773438 151.09375 Z M 148.773438 145.808594 " clip-rule="nonzero"/></clipPath><clipPath id="b25a8b676a"><path d="M 149.925781 145.875 C 153.375 150.375 153.226562 150.824219 153 150.976562 C 152.773438 151.125 152.25 151.050781 152.101562 150.898438 C 151.949219 150.675781 152.101562 149.773438 152.324219 149.625 C 152.550781 149.550781 153.300781 149.925781 153.300781 150.074219 C 153.375 150.300781 152.550781 151.050781 152.175781 150.898438 C 151.574219 150.824219 151.273438 148.800781 150.601562 148.050781 C 150.074219 147.523438 149.023438 147.300781 148.800781 146.851562 C 148.726562 146.550781 148.875 146.023438 149.023438 145.875 C 149.25 145.726562 149.925781 145.875 149.925781 145.875 " clip-rule="nonzero"/></clipPath></defs><g clip-path="url(#a9168a23d9)"><path fill="#000000" d="M 224.699219 177.984375 L 87.109375 24.15625 C 84.433594 21.136719 80.558594 19.429688 76.511719 19.429688 L 45.578125 19.429688 C 38.113281 19.429688 31.675781 23.53125 28.710938 30.195312 C 25.863281 36.578125 27.003906 43.757812 31.730469 48.996094 L 150.464844 181.800781 C 153.371094 185.050781 153.371094 189.949219 150.464844 193.195312 L 31.675781 326 C 27.003906 331.242188 25.863281 338.476562 28.65625 344.800781 C 31.617188 351.46875 38.113281 355.570312 45.519531 355.570312 L 76.457031 355.570312 C 80.5 355.570312 84.375 353.859375 87.050781 350.839844 L 224.640625 197.011719 C 229.484375 191.601562 229.484375 183.453125 224.640625 178.042969 Z M 224.699219 177.984375 " fill-opacity="1" fill-rule="nonzero"/></g><g clip-path="url(#efa00395e6)"><path fill="#000000" d="M 344.34375 177.984375 L 206.753906 24.15625 C 204.074219 21.136719 200.199219 19.429688 196.15625 19.429688 L 165.21875 19.429688 C 157.757812 19.429688 151.316406 23.53125 148.355469 30.195312 C 145.507812 36.578125 146.644531 43.757812 151.375 48.996094 L 270.164062 181.800781 C 273.070312 185.050781 273.070312 189.949219 270.164062 193.195312 L 151.375 326 C 146.703125 331.242188 145.5625 338.476562 148.355469 344.800781 C 151.316406 351.46875 157.8125 355.570312 165.21875 355.570312 L 196.15625 355.570312 C 200.199219 355.570312 204.074219 353.859375 206.753906 350.839844 L 344.34375 197.011719 C 349.183594 191.601562 349.183594 183.453125 344.34375 178.042969 Z M 344.34375 177.984375 " fill-opacity="1" fill-rule="nonzero"/></g><g clip-path="url(#a32bc33879)"><g clip-path="url(#b25a8b676a)"><path fill="#000000" d="M 145.800781 142.875 L 156.375 142.875 L 156.375 154.070312 L 145.800781 154.070312 Z M 145.800781 142.875 " fill-opacity="1" fill-rule="nonzero"/></g></g></svg>