<svg xmlns="http://www.w3.org/2000/svg" xmlns:xlink="http://www.w3.org/1999/xlink" width="500" zoomAndPan="magnify" viewBox="0 0 375 374.999991" height="500" preserveAspectRatio="xMidYMid meet" version="1.0"><defs><clipPath id="881864f621"><path d="M 113 126 L 262.5 126 L 262.5 249 L 113 249 Z M 113 126 " clip-rule="nonzero"/></clipPath></defs><g clip-path="url(#881864f621)"><path fill="#ffffff" d="M 262.5 187.839844 C 262.5 191.585938 259.460938 194.625 255.710938 194.625 L 136.351562 194.625 L 179.0625 237.339844 C 181.714844 239.992188 181.714844 244.285156 179.0625 246.9375 C 177.738281 248.261719 176 248.925781 174.265625 248.925781 C 172.527344 248.925781 170.792969 248.261719 169.464844 246.9375 L 115.167969 192.636719 C 112.515625 189.988281 112.515625 185.691406 115.167969 183.039062 L 169.464844 128.742188 C 172.117188 126.089844 176.414062 126.089844 179.0625 128.742188 C 181.714844 131.394531 181.714844 135.6875 179.0625 138.339844 L 136.351562 181.050781 L 255.710938 181.050781 C 259.460938 181.050781 262.5 184.089844 262.5 187.839844 Z M 262.5 187.839844 " fill-opacity="1" fill-rule="nonzero"/></g></svg>