<svg xmlns="http://www.w3.org/2000/svg" xmlns:xlink="http://www.w3.org/1999/xlink" width="480" zoomAndPan="magnify" viewBox="0 0 360 225" height="300" preserveAspectRatio="xMidYMid meet" version="1.0"><defs><clipPath id="0aa64f709f"><path d="M 5.582031 22 L 353 22 L 353 203 L 5.582031 203 Z M 5.582031 22 " clip-rule="nonzero"/></clipPath><clipPath id="13a584bd8e"><path d="M 106.9375 122.628906 L 115.730469 122.628906 L 115.730469 125.125 L 106.9375 125.125 Z M 106.9375 122.628906 " clip-rule="nonzero"/></clipPath><clipPath id="8ecd1c7ece"><path d="M 114.898438 125.101562 C 107.101562 123.976562 106.875 123.523438 106.949219 123.300781 C 107.023438 123.074219 107.699219 122.699219 107.925781 122.773438 C 108.148438 122.925781 108.226562 124.050781 108 124.125 C 107.851562 124.273438 106.949219 123.601562 106.949219 123.375 C 106.875 123.148438 107.175781 122.851562 107.625 122.773438 C 108.75 122.398438 114 123 115.125 123.601562 C 115.5 123.824219 115.726562 124.125 115.726562 124.351562 C 115.726562 124.574219 114.898438 125.101562 114.898438 125.101562 " clip-rule="nonzero"/></clipPath></defs><g clip-path="url(#0aa64f709f)"><path fill="#040606" d="M 345.445312 99.683594 L 238.257812 25.101562 C 227.964844 17.945312 213.863281 25.296875 213.863281 37.824219 L 213.863281 61.957031 C 213.863281 67.449219 209.410156 71.898438 203.917969 71.898438 L 21.097656 71.898438 C 12.527344 71.898438 5.582031 78.839844 5.582031 87.402344 L 5.582031 137.402344 C 5.582031 145.972656 12.527344 152.917969 21.097656 152.917969 L 203.917969 152.917969 C 209.410156 152.917969 213.863281 157.363281 213.863281 162.851562 L 213.863281 186.988281 C 213.863281 199.515625 227.964844 206.871094 238.257812 199.707031 L 345.445312 125.132812 C 354.3125 118.960938 354.3125 105.851562 345.445312 99.683594 " fill-opacity="1" fill-rule="nonzero"/></g><g clip-path="url(#13a584bd8e)"><g clip-path="url(#8ecd1c7ece)"><path fill="#040606" d="M 103.949219 119.773438 L 118.8125 119.773438 L 118.8125 128.175781 L 103.949219 128.175781 Z M 103.949219 119.773438 " fill-opacity="1" fill-rule="nonzero"/></g></g></svg>