<svg xmlns="http://www.w3.org/2000/svg" xmlns:xlink="http://www.w3.org/1999/xlink" width="500" zoomAndPan="magnify" viewBox="0 0 375 374.999991" height="500" preserveAspectRatio="xMidYMid meet" version="1.0"><defs><clipPath id="cfd69c9f27"><path d="M 5.765625 5.765625 L 369.515625 5.765625 L 369.515625 369.515625 L 5.765625 369.515625 Z M 5.765625 5.765625 " clip-rule="nonzero"/></clipPath><clipPath id="cd9d1b041d"><path d="M 165.128906 187.941406 L 176 187.941406 L 176 190.820312 L 165.128906 190.820312 Z M 165.128906 187.941406 " clip-rule="nonzero"/></clipPath><clipPath id="dfc27a6a17"><path d="M 174.976562 190.800781 C 170.324219 189.601562 166.5 190.351562 165.601562 189.75 C 165.300781 189.523438 165.074219 189.074219 165.148438 188.773438 C 165.226562 188.550781 165.75 188.25 165.976562 188.324219 C 166.199219 188.398438 166.648438 189 166.574219 189.226562 C 166.574219 189.449219 165.675781 189.824219 165.449219 189.675781 C 165.300781 189.601562 165.300781 188.699219 165.601562 188.324219 C 166.425781 187.648438 170.398438 188.023438 172.199219 188.324219 C 173.625 188.550781 175.351562 189 175.800781 189.523438 C 176.023438 189.824219 176.023438 190.351562 175.949219 190.5 C 175.800781 190.726562 174.976562 190.800781 174.976562 190.800781 " clip-rule="nonzero"/></clipPath></defs><g clip-path="url(#cfd69c9f27)"><path fill="#000000" d="M 349.304688 167.429688 L 207.847656 167.429688 L 207.847656 25.972656 C 207.847656 25.3125 207.816406 24.652344 207.75 23.992188 C 207.6875 23.332031 207.589844 22.679688 207.460938 22.03125 C 207.332031 21.382812 207.167969 20.738281 206.976562 20.105469 C 206.785156 19.472656 206.5625 18.851562 206.308594 18.238281 C 206.054688 17.628906 205.773438 17.03125 205.460938 16.445312 C 205.148438 15.863281 204.808594 15.296875 204.441406 14.746094 C 204.074219 14.195312 203.679688 13.664062 203.261719 13.152344 C 202.839844 12.640625 202.398438 12.152344 201.929688 11.683594 C 201.460938 11.214844 200.972656 10.773438 200.460938 10.351562 C 199.949219 9.933594 199.417969 9.539062 198.867188 9.171875 C 198.316406 8.800781 197.75 8.460938 197.164062 8.152344 C 196.582031 7.839844 195.984375 7.554688 195.371094 7.304688 C 194.761719 7.050781 194.140625 6.828125 193.503906 6.636719 C 192.871094 6.441406 192.230469 6.28125 191.582031 6.152344 C 190.933594 6.023438 190.277344 5.925781 189.621094 5.863281 C 188.960938 5.796875 188.300781 5.765625 187.640625 5.765625 C 186.976562 5.765625 186.316406 5.796875 185.660156 5.863281 C 185 5.925781 184.347656 6.023438 183.695312 6.152344 C 183.046875 6.28125 182.40625 6.441406 181.773438 6.636719 C 181.140625 6.828125 180.519531 7.050781 179.90625 7.304688 C 179.292969 7.554688 178.695312 7.839844 178.113281 8.152344 C 177.53125 8.460938 176.960938 8.800781 176.414062 9.171875 C 175.863281 9.539062 175.332031 9.933594 174.820312 10.351562 C 174.308594 10.773438 173.816406 11.214844 173.351562 11.683594 C 172.882812 12.152344 172.4375 12.640625 172.019531 13.152344 C 171.597656 13.664062 171.203125 14.195312 170.835938 14.746094 C 170.46875 15.296875 170.128906 15.863281 169.816406 16.445312 C 169.503906 17.03125 169.222656 17.628906 168.96875 18.238281 C 168.714844 18.851562 168.492188 19.472656 168.300781 20.105469 C 168.109375 20.738281 167.949219 21.382812 167.820312 22.03125 C 167.691406 22.679688 167.59375 23.332031 167.527344 23.992188 C 167.464844 24.652344 167.429688 25.3125 167.429688 25.972656 L 167.429688 167.429688 L 25.972656 167.429688 C 25.3125 167.429688 24.652344 167.464844 23.992188 167.527344 C 23.332031 167.59375 22.679688 167.691406 22.03125 167.820312 C 21.382812 167.949219 20.738281 168.109375 20.105469 168.300781 C 19.472656 168.492188 18.851562 168.714844 18.238281 168.96875 C 17.628906 169.222656 17.03125 169.503906 16.445312 169.816406 C 15.863281 170.128906 15.296875 170.46875 14.746094 170.835938 C 14.195312 171.203125 13.664062 171.597656 13.152344 172.019531 C 12.640625 172.4375 12.152344 172.882812 11.683594 173.351562 C 11.214844 173.816406 10.773438 174.308594 10.351562 174.820312 C 9.933594 175.332031 9.539062 175.863281 9.171875 176.414062 C 8.800781 176.960938 8.460938 177.53125 8.152344 178.113281 C 7.839844 178.695312 7.554688 179.292969 7.304688 179.90625 C 7.050781 180.519531 6.828125 181.140625 6.636719 181.773438 C 6.441406 182.40625 6.28125 183.046875 6.152344 183.695312 C 6.023438 184.347656 5.925781 185 5.863281 185.660156 C 5.796875 186.316406 5.765625 186.976562 5.765625 187.640625 C 5.765625 188.300781 5.796875 188.960938 5.863281 189.621094 C 5.925781 190.277344 6.023438 190.933594 6.152344 191.582031 C 6.28125 192.230469 6.441406 192.871094 6.632812 193.503906 C 6.828125 194.140625 7.050781 194.761719 7.304688 195.371094 C 7.554688 195.984375 7.839844 196.582031 8.152344 197.164062 C 8.460938 197.75 8.800781 198.316406 9.171875 198.867188 C 9.539062 199.417969 9.933594 199.949219 10.351562 200.460938 C 10.773438 200.972656 11.214844 201.460938 11.683594 201.929688 C 12.152344 202.398438 12.640625 202.839844 13.152344 203.261719 C 13.664062 203.679688 14.195312 204.074219 14.746094 204.441406 C 15.296875 204.808594 15.863281 205.148438 16.445312 205.460938 C 17.03125 205.773438 17.628906 206.054688 18.238281 206.308594 C 18.851562 206.5625 19.472656 206.785156 20.105469 206.976562 C 20.738281 207.167969 21.382812 207.332031 22.03125 207.460938 C 22.679688 207.589844 23.332031 207.6875 23.992188 207.75 C 24.652344 207.816406 25.3125 207.847656 25.972656 207.847656 L 167.429688 207.847656 L 167.429688 349.304688 C 167.429688 349.96875 167.464844 350.628906 167.527344 351.285156 C 167.59375 351.945312 167.691406 352.597656 167.820312 353.25 C 167.949219 353.898438 168.109375 354.539062 168.300781 355.171875 C 168.492188 355.804688 168.714844 356.429688 168.96875 357.039062 C 169.222656 357.652344 169.503906 358.25 169.816406 358.832031 C 170.128906 359.417969 170.46875 359.984375 170.835938 360.535156 C 171.203125 361.082031 171.597656 361.613281 172.019531 362.125 C 172.4375 362.636719 172.882812 363.128906 173.351562 363.59375 C 173.816406 364.0625 174.308594 364.507812 174.820312 364.925781 C 175.332031 365.347656 175.863281 365.742188 176.414062 366.109375 C 176.960938 366.476562 177.53125 366.816406 178.113281 367.128906 C 178.695312 367.441406 179.292969 367.722656 179.90625 367.976562 C 180.519531 368.230469 181.140625 368.453125 181.773438 368.644531 C 182.40625 368.835938 183.046875 368.996094 183.695312 369.125 C 184.347656 369.253906 185 369.351562 185.660156 369.417969 C 186.316406 369.480469 186.976562 369.515625 187.640625 369.515625 C 188.300781 369.515625 188.960938 369.480469 189.621094 369.417969 C 190.277344 369.351562 190.933594 369.253906 191.582031 369.125 C 192.230469 368.996094 192.871094 368.835938 193.503906 368.644531 C 194.140625 368.453125 194.761719 368.230469 195.371094 367.976562 C 195.984375 367.722656 196.582031 367.441406 197.164062 367.128906 C 197.75 366.816406 198.316406 366.476562 198.867188 366.109375 C 199.417969 365.742188 199.949219 365.347656 200.460938 364.925781 C 200.972656 364.507812 201.460938 364.0625 201.929688 363.59375 C 202.398438 363.128906 202.839844 362.636719 203.261719 362.125 C 203.679688 361.613281 204.074219 361.082031 204.441406 360.535156 C 204.808594 359.984375 205.148438 359.417969 205.460938 358.832031 C 205.773438 358.25 206.054688 357.652344 206.308594 357.039062 C 206.5625 356.429688 206.785156 355.804688 206.976562 355.171875 C 207.167969 354.539062 207.332031 353.898438 207.460938 353.25 C 207.589844 352.597656 207.6875 351.945312 207.75 351.285156 C 207.816406 350.628906 207.847656 349.96875 207.847656 349.304688 L 207.847656 207.847656 L 349.304688 207.847656 C 349.96875 207.847656 350.628906 207.816406 351.285156 207.75 C 351.945312 207.6875 352.597656 207.589844 353.25 207.460938 C 353.898438 207.332031 354.539062 207.167969 355.171875 206.976562 C 355.804688 206.785156 356.429688 206.5625 357.039062 206.308594 C 357.652344 206.054688 358.25 205.773438 358.832031 205.460938 C 359.417969 205.148438 359.984375 204.808594 360.535156 204.441406 C 361.082031 204.074219 361.613281 203.679688 362.125 203.261719 C 362.636719 202.839844 363.128906 202.398438 363.597656 201.929688 C 364.0625 201.460938 364.507812 200.972656 364.925781 200.460938 C 365.347656 199.949219 365.742188 199.417969 366.109375 198.867188 C 366.476562 198.316406 366.816406 197.75 367.128906 197.164062 C 367.441406 196.582031 367.722656 195.984375 367.976562 195.371094 C 368.230469 194.761719 368.453125 194.140625 368.644531 193.503906 C 368.835938 192.871094 368.996094 192.230469 369.125 191.582031 C 369.253906 190.933594 369.351562 190.277344 369.417969 189.621094 C 369.480469 188.960938 369.515625 188.300781 369.515625 187.640625 C 369.515625 186.976562 369.480469 186.316406 369.417969 185.660156 C 369.351562 185 369.253906 184.347656 369.125 183.695312 C 368.996094 183.046875 368.835938 182.40625 368.644531 181.773438 C 368.453125 181.140625 368.230469 180.519531 367.976562 179.90625 C 367.722656 179.292969 367.441406 178.695312 367.128906 178.113281 C 366.816406 177.53125 366.476562 176.960938 366.109375 176.414062 C 365.742188 175.863281 365.347656 175.332031 364.925781 174.820312 C 364.507812 174.308594 364.0625 173.816406 363.597656 173.351562 C 363.128906 172.882812 362.636719 172.4375 362.125 172.019531 C 361.613281 171.597656 361.082031 171.203125 360.535156 170.835938 C 359.984375 170.46875 359.417969 170.128906 358.832031 169.816406 C 358.25 169.503906 357.652344 169.222656 357.039062 168.96875 C 356.429688 168.714844 355.804688 168.492188 355.171875 168.300781 C 354.539062 168.109375 353.898438 167.949219 353.25 167.820312 C 352.597656 167.691406 351.945312 167.59375 351.285156 167.527344 C 350.628906 167.464844 349.96875 167.429688 349.304688 167.429688 Z M 349.304688 167.429688 " fill-opacity="1" fill-rule="nonzero"/></g><g clip-path="url(#cd9d1b041d)"><g clip-path="url(#dfc27a6a17)"><path fill="#000000" d="M 162.148438 185.324219 L 178.933594 185.324219 L 178.933594 193.800781 L 162.148438 193.800781 Z M 162.148438 185.324219 " fill-opacity="1" fill-rule="nonzero"/></g></g></svg>