<svg xmlns="http://www.w3.org/2000/svg" xmlns:xlink="http://www.w3.org/1999/xlink" width="500" zoomAndPan="magnify" viewBox="0 0 375 374.999991" height="500" preserveAspectRatio="xMidYMid meet" version="1.0"><defs><clipPath id="aacd4ce3fb"><path d="M 112.5 126 L 262 126 L 262 249 L 112.5 249 Z M 112.5 126 " clip-rule="nonzero"/></clipPath></defs><g clip-path="url(#aacd4ce3fb)"><path fill="#" d="M 112.5 187.839844 C 112.5 191.585938 115.539062 194.625 119.289062 194.625 L 238.648438 194.625 L 195.9375 237.339844 C 193.285156 239.992188 193.285156 244.285156 195.9375 246.9375 C 197.261719 248.261719 199 248.925781 200.734375 248.925781 C 202.472656 248.925781 204.207031 248.261719 205.535156 246.9375 L 259.832031 192.636719 C 262.484375 189.988281 262.484375 185.691406 259.832031 183.039062 L 205.535156 128.742188 C 202.882812 126.089844 198.585938 126.089844 195.9375 128.742188 C 193.285156 131.394531 193.285156 135.6875 195.9375 138.339844 L 238.648438 181.050781 L 119.289062 181.050781 C 115.539062 181.050781 112.5 184.089844 112.5 187.839844 Z M 112.5 187.839844 " fill-opacity="1" fill-rule="nonzero"/></g></svg>