<svg xmlns="http://www.w3.org/2000/svg" xmlns:xlink="http://www.w3.org/1999/xlink" width="500" zoomAndPan="magnify" viewBox="0 0 375 374.999991" height="500" preserveAspectRatio="xMidYMid meet" version="1.0"><defs><clipPath id="a6125e1164"><path d="M 29.496094 8 L 345.246094 8 L 345.246094 367 L 29.496094 367 Z M 29.496094 8 " clip-rule="nonzero"/></clipPath><clipPath id="c7d6d7bf3c"><path d="M 166.464844 190.761719 L 169.355469 190.761719 L 169.355469 194.667969 L 166.464844 194.667969 Z M 166.464844 190.761719 " clip-rule="nonzero"/></clipPath><clipPath id="7ee43b200f"><path d="M 167.851562 191.101562 C 169.351562 194.175781 169.199219 194.550781 168.976562 194.625 C 168.675781 194.699219 168 194.476562 167.925781 194.25 C 167.851562 194.023438 168.148438 193.351562 168.375 193.273438 C 168.601562 193.199219 169.425781 193.800781 169.351562 194.023438 C 169.351562 194.175781 168.375 194.476562 168 194.324219 C 167.324219 194.023438 166.425781 192.226562 166.5 191.625 C 166.5 191.25 166.800781 190.875 167.023438 190.800781 C 167.25 190.726562 167.851562 191.101562 167.851562 191.101562 " clip-rule="nonzero"/></clipPath></defs><g clip-path="url(#a6125e1164)"><path fill="#ffffff" d="M 334.675781 168.566406 L 63.074219 11.769531 C 56.175781 7.789062 47.695312 7.789062 40.804688 11.769531 C 33.914062 15.742188 29.667969 23.089844 29.667969 31.050781 L 29.667969 344.683594 C 29.667969 352.640625 33.914062 359.992188 40.804688 363.964844 C 44.25 365.980469 48.09375 366.953125 51.941406 366.953125 C 55.785156 366.953125 59.628906 365.953125 63.074219 363.964844 L 334.675781 207.164062 C 341.582031 203.1875 345.804688 195.835938 345.804688 187.875 C 345.804688 179.914062 341.570312 172.554688 334.675781 168.566406 Z M 334.675781 168.566406 " fill-opacity="1" fill-rule="nonzero"/></g><g clip-path="url(#c7d6d7bf3c)"><g clip-path="url(#7ee43b200f)"><path fill="#ffffff" d="M 163.5 187.800781 L 172.425781 187.800781 L 172.425781 197.699219 L 163.5 197.699219 Z M 163.5 187.800781 " fill-opacity="1" fill-rule="nonzero"/></g></g></svg>