<svg xmlns="http://www.w3.org/2000/svg" xmlns:xlink="http://www.w3.org/1999/xlink" width="500" zoomAndPan="magnify" viewBox="0 0 375 374.999991" height="500" preserveAspectRatio="xMidYMid meet" version="1.0"><defs><clipPath id="68ece91867"><path d="M 118.753906 289.953125 L 120.234375 289.953125 L 120.234375 291.144531 L 118.753906 291.144531 Z M 118.753906 289.953125 " clip-rule="nonzero"/></clipPath><clipPath id="8d9085a0c3"><path d="M 120.226562 290.324219 C 119.550781 291.375 118.949219 291.148438 118.800781 291 C 118.726562 290.773438 118.800781 290.175781 119.023438 290.023438 C 119.175781 289.875 120 290.023438 120 290.023438 " clip-rule="nonzero"/></clipPath><clipPath id="6ec941919e"><path d="M 75.113281 174.582031 L 300 174.582031 L 300 233.832031 L 75.113281 233.832031 Z M 75.113281 174.582031 " clip-rule="nonzero"/></clipPath></defs><g clip-path="url(#68ece91867)"><g clip-path="url(#8d9085a0c3)"><path fill="#fafdfd" d="M 115.800781 287.023438 L 123.21875 287.023438 L 123.21875 294.300781 L 115.800781 294.300781 Z M 115.800781 287.023438 " fill-opacity="1" fill-rule="nonzero"/></g></g><g clip-path="url(#6ec941919e)"><path fill="#ffd701" d="M 75.75 232.066406 C 76.230469 233.183594 77.316406 233.851562 78.457031 233.851562 C 78.84375 233.851562 79.238281 233.773438 79.613281 233.613281 C 148.808594 203.953125 221.960938 186.105469 297.039062 180.574219 C 298.660156 180.453125 299.878906 179.042969 299.757812 177.421875 C 299.640625 175.800781 298.21875 174.582031 296.609375 174.707031 C 259.089844 177.46875 221.449219 183.414062 184.738281 192.371094 C 148.019531 201.324219 111.875 213.382812 77.296875 228.203125 C 75.800781 228.84375 75.109375 230.574219 75.75 232.066406 Z M 75.75 232.066406 " fill-opacity="1" fill-rule="nonzero"/></g></svg>